<svg xmlns="http://www.w3.org/2000/svg" width="45.21" height="6.07" viewBox="0 0 45.21 6.07">
    <path id="Path_13729" data-name="Path 13729"
          d="M44.525,12.007H.685A.685.685,0,0,1,0,11.322v-4.7a.685.685,0,0,1,.685-.685h43.84a.685.685,0,0,1,.685.685v4.7A.684.684,0,0,1,44.525,12.007ZM1.37,10.637H43.84V7.307H1.37Z"
          transform="translate(0 -5.937)" fill="#000"/>
    <path id="Path_13729" data-name="Path 13729"
          d="M44.525,12.007H.685A.685.685,0,0,1,0,11.322v-4.7a.685.685,0,0,1,.685-.685h43.84a.685.685,0,0,1,.685.685v4.7A.684.684,0,0,1,44.525,12.007ZM1.37,10.637H43.84V7.307H1.37Z"
          transform="translate(0 -5.937)" fill="#000"/>

    <path id="Path_13730" data-name="Path 13730"
          d="M3.864,33.61H1.853a.685.685,0,0,1-.674-.8L5.2,9.934a.685.685,0,0,1,.674-.566h4.694a.683.683,0,0,1,.656.877L4.52,33.118A.684.684,0,0,1,3.864,33.61ZM2.669,32.24h.682l6.3-21.5h-3.2Z"
          transform="translate(-1.169 -9.368)" fill="#000"/>
    <path id="Path_13731" data-name="Path 13731"
          d="M33.01,33.61H31a.683.683,0,0,1-.656-.492l-6.7-22.872a.683.683,0,0,1,.656-.877h4.694a.685.685,0,0,1,.674.566l4.024,22.872a.683.683,0,0,1-.674.8Zm-1.5-1.37h.684l-3.783-21.5h-3.2Z"
          transform="translate(-23.608 -9.369)" fill="#000"/>
</svg>

