<svg xmlns="http://www.w3.org/2000/svg" width="45" height="24" style=""><rect id="backgroundrect" width="100%" height="100%" x="0" y="0" fill="none" stroke="none"/>
    
    

    
    
<g class="currentLayer" style=""><title>Layer 1</title><path data-name="Path 13729" d="M39.01654655404967,7.207002988623826 H6.425031833132925 A0.5092424175143253,0.5834349608421336 0 0 1 5.915789415618601,6.623568027781694 v-4.003130388259888 a0.5092424175143253,0.5834349608421336 0 0 1 0.5092424175143253,-0.5834349608421336 h32.59151472091675 a0.5092424175143253,0.5834349608421336 0 0 1 0.5092424175143253,0.5834349608421336 v4.003130388259888 A0.5084989979267129,0.5825832309722913 0 0 1 39.01654655404967,7.207002988623826 zM6.934274250647249,6.040133066939563 H38.50730413653535 V3.203872600363942 H6.934274250647249 z" fill="#fff" class="" id="svg_1"/><path id="Path_13729" data-name="Path 13729" d="M33.76439302333708,10.170002044643214 H11.64560602929901 A0.3456060467818459,0.3351646317827875 0 0 1 11.299999982517166,9.834837412860441 v-2.2996697363198493 a0.3456060467818459,0.3351646317827875 0 0 1 0.3456060467818459,-0.3351646317827875 h22.118786994038068 a0.3456060467818459,0.3351646317827875 0 0 1 0.3456060467818459,0.3351646317827875 v2.2996697363198493 A0.3451015124069817,0.3346753403495279 0 0 1 33.76439302333708,10.170002044643214 zM11.991212076080856,9.499672781077647 H33.418786976555246 V7.87033230832337 H11.991212076080856 z" fill="#fff" class=""/><path id="Path_13730" data-name="Path 13730" d="M7.9725175139903595,24.14200261309382 H6.799197048379044 a0.3996641068840146,0.4985055145911262 0 0 1 -0.39324614312383327,-0.5821962214202938 L8.752008385226915,6.911905440160263 a0.3996641068840146,0.4985055145911262 0 0 1 0.39324614312383327,-0.4119038266548578 h2.738720171844613 a0.3984972043821636,0.4970500240375758 0 0 1 0.38274402060717305,0.6382326077319966 L8.355261534597531,23.783951936920346 A0.3990806556330889,0.49777776931435147 0 0 1 7.9725175139903595,24.14200261309382 zM7.2752932691343055,23.144991583911576 h0.39791375313123795 l3.6757428808310744,-15.646523450670363 h-1.867044002961816 z" fill="#fff" class=""/><path id="Path_13731" data-name="Path 13731" d="M39.26274849493954,24.041001504719848 H38.010018733391064 a0.42567881947144487,0.4801370892726983 0 0 1 -0.4088511062566138,-0.34586742009102206 l-4.175765871828216,-16.07861713886549 a0.42567881947144487,0.4801370892726983 0 0 1 0.4088511062566138,-0.6165157061378562 h2.9255291048300958 a0.4269253167466168,0.4815430543950194 0 0 1 0.4200695817331678,0.39788812961690656 l2.507952517647275,16.07861713886549 a0.42567881947144487,0.4801370892726983 0 0 1 -0.4200695817331678,0.562386048928489 zm-0.9348729563794523,-0.963086108790038 h0.4263020681090312 l-2.357749595988977,-15.114125064953132 h-1.9943956402761631 z" fill="#fff" class=""/></g></svg>